<svg width="731" height="138" viewBox="0 0 731 138" fill="none" xmlns="http://www.w3.org/2000/svg">
<path d="M317.8 93.7C303.8 76.7 301.8 64.7 305.8 40.7C305.8 40.7 304.8 41.7 305 41.3C302.7 43.8 300.5 46.5 298.7 49.4C282.6 74.7 290 108.3 315.3 124.4C328 132.5 342.7 134.7 356.4 131.6C356 131.7 358.9 131 358 130.7C335.8 122.7 322.8 111.7 317.8 93.7Z" fill="#F0E903"/>
<path d="M408.4 42.3C407.7 41.7 406.7 41.7 406.7 41.7C410.7 64.7 404.7 84.7 393.7 93.7C388.7 108.7 379.7 121.7 355.7 129.7C355.7 129.7 355.7 131.7 356.1 131.6C377.8 136.5 401.1 127.6 413.8 107.8C427.3 86.8 424.4 60 408.4 42.3Z" fill="#DD03E3"/>
<path d="M355.8 27.7C373.8 22.7 395.8 31.7 408.8 44.7C409.3 45.2 408 41.7 408.5 42.3C404.8 30.4 397.1 19.7 385.8 12.5C360.5 -3.6 326.9 3.8 310.8 29.1C308.3 33 306.4 37.1 305 41.3C305.8 41.7 305.8 42.7 305.8 42.7C318.9 31 338.8 23.9 355.8 27.7Z" fill="#03E0DA"/>
<path d="M390.2 107.9C392.7 104 394.6 99.9 396 95.7C395.8 95.8 394.8 94.8 394.8 94.8C375.8 116.8 338.8 115.8 317.8 94.8C317.8 94.8 316.8 93.8 316.2 94.8C319.9 106.7 327.6 117.4 338.9 124.6C344.4 128.1 350.3 130.5 356.2 131.8C369.7 128.7 382.1 120.5 390.2 107.9Z" fill="#E30505"/>
<path d="M397.3 32.9C384.6 24.8 369.9 22.6 356.2 25.7C355.7 25.8 355.7 26.8 355.7 26.8C386.9 35.1 403.7 63.8 394.7 94.8C394.7 94.8 396.5 93.9 395.9 95.7C398.2 93.2 400.4 90.5 402.2 87.6C411.1 73.6 412.9 57.1 408.3 42.3C405.2 38.8 401.5 35.6 397.3 32.9Z" fill="#0503E3"/>
<path d="M316.2 94.7C315.8 93.4 318.1 94.1 317.8 92.7C310.8 58.7 330.8 36.7 355.8 27.7C358 26.9 354 26.1 356.3 25.6C337.9 21.5 318.2 27.2 305 41.3C298.8 59.8 303.2 80.3 316.2 94.7Z" fill="#21D95F"/>
<path d="M373.6 32.9C368.1 29.4 362.2 27 356.3 25.7C342.8 28.7 330.4 36.9 322.3 49.5C313.4 63.5 311.6 80 316.2 94.8C319.4 98.3 323.1 101.5 327.3 104.2C349.6 118.5 378.4 114.3 396 95.8C403.6 72.7 395 46.5 373.6 32.9Z" fill="black"/>
<path d="M31.9 34.4V56.7H71.3V79.6H31.9V103.2H77.8V126H9V11.8H77.8V34.4H31.9Z" fill="black"/>
<path d="M190.4 11.3V125.8H189.3L121.6 62V125.9H98.6001V11.5H99.7001L167.3 75.3V11.3H190.4Z" fill="black"/>
<path d="M235.1 34.2V57.2H274.5V80.1H235.1V125.9H212.2V11.3H281V34.2H235.1Z" fill="black"/>
<path d="M432.4 68.5C432.4 37.3 458.7 10.9 489.8 10.9C504.2 11.1 517 16.8 528.6 28L515.8 45.5C508.3 38.1 499.2 33.6 489.7 33.6C471.9 33.6 455 49.4 455 68.7C455 88.4 472.6 103.6 489.7 103.6C499.9 103.6 508.6 98.2 516 91L528.8 109C519.1 118.7 507.2 125.9 490.4 125.9C458.3 125.9 432.4 99.6 432.4 68.5Z" fill="black"/>
<path d="M545 82.2V11.9H567.6V82.2C567.6 94.4 577.2 103.2 588 103.2C598.8 103.2 608.6 94.3 608.6 82.2V11.9H631.2V82.2C631.2 107.5 611.9 125.9 588.1 125.9C564.3 125.9 545 107.5 545 82.2Z" fill="black"/>
<path d="M644.2 104.6L662 92.2C666.9 100 673.9 103.6 683.5 103.6C693.9 103.6 700.9 99.4 700.9 93.5C700.9 85.4 687.7 79 676.1 73.3C663.7 67.1 650.1 60.3 650.1 42.7C650.1 23.6 666.3 11 686.6 11C701.7 11 714.1 17.2 719.2 30.6L702.8 42C699.5 35.4 693.1 32.7 687 32.7C678.7 32.7 672.5 37.5 672.5 43.2C672.5 49.8 680.9 52 693.5 58C711.8 66.6 723.3 76 723.3 93C723.3 113.1 706.9 126 683.2 126C665 125.9 651.6 118.4 644.2 104.6Z" fill="black"/>
</svg>
